#Comment line ignore any data following # character 
#Hierarchical Translation and Rotation (.htr) file 
[Header]	
#Header keywords are followed by a single value 
FileType HTR		#Single word string
DataType HTRS		#Translation followed by rotation and scale data
FileVersion 1		#integer
NumSegments 64		#integer
NumFrames 3		#integer
DataFrameRate 30		#integer, data frame rate in this file
EulerRotationOrder ZYX
CalibrationUnits mm
RotationUnits Degrees
GlobalAxisofGravity Y
BoneLengthAxis Y
ScaleFactor 1.00
[SegmentNames&Hierarchy]
#CHILD	PARENT
Pinger_Root GLOBAL
Pelvis Pinger_Root
L_Hip Pelvis
R_Hip Pelvis
Rear_Leg01 Pelvis
Spine1 Pelvis
L_Leg01 L_Hip
L_Leg02 L_Leg01
L_Leg03 L_Leg02
L_Foot L_Leg03
L_Toe1_01 L_Foot
L_Toe2_01 L_Foot
L_Toe3_01 L_Foot
planeAlignerLeft L_Foot
L_Toe1_02 L_Toe1_01
L_Toe1_03 L_Toe1_02
L_Toe2_02 L_Toe2_01
L_Toe2_03 L_Toe2_02
L_Toe3_02 L_Toe3_01
L_Toe3_03 L_Toe3_02
planeLockWeightLeft planeAlignerLeft
R_Leg01 R_Hip
R_Leg02 R_Leg01
R_Leg03 R_Leg02
R_Foot R_Leg03
planeAlignerRight R_Foot
R_Toe1_01 R_Foot
R_Toe2_01 R_Foot
R_Toe3_01 R_Foot
planeLockWeightRight planeAlignerRight
R_Toe1_02 R_Toe1_01
R_Toe1_03 R_Toe1_02
R_Toe2_02 R_Toe2_01
R_Toe2_03 R_Toe2_02
R_Toe3_02 R_Toe3_01
R_Toe3_03 R_Toe3_02
Rear_Leg02 Rear_Leg01
Rear_Leg03 Rear_Leg02
Rear_Leg04 Rear_Leg03
Rear_Foot Rear_Leg04
planeAlignerCenter Rear_Foot
Rear_Toe1_01 Rear_Foot
Rear_Toe2_01 Rear_Foot
Rear_Toe3_01 Rear_Foot
planeLockWeightCenter planeAlignerCenter
Rear_Toe1_02 Rear_Toe1_01
Rear_Toe1_03 Rear_Toe1_02
Rear_Toe2_02 Rear_Toe2_01
Rear_Toe2_03 Rear_Toe2_02
Rear_Toe3_02 Rear_Toe3_01
Rear_Toe3_03 Rear_Toe3_02
Back_Bone Spine1
Head Spine1
Motor_Bone Back_Bone
Ping_Mechanism Back_Bone
BN_LookIK Head
bottomMouth Head
L_Mouth01 Head
L_mouthFront Head
mouthGun Head
R_Mouth01 Head
R_mouthFront Head
TopMouth Head
weapon_bone Head
[BasePosition]
#SegmentName Tx, Ty, Tz, Rx, Ry, Rz, BoneLength
Pinger_Root 0.000000 0.000000 0.000000 -90.000000 0.000000 0.000000 10.000000 
Pelvis 0.000000 0.000000 0.000000 0.000000 0.000000 0.000000 10.000000 
L_Hip 0.000000 0.000000 0.000000 0.000000 0.000000 0.000000 10.000000 
R_Hip 0.000000 0.000000 0.000000 0.000000 0.000000 0.000000 10.000000 
Rear_Leg01 0.000000 0.000000 0.000000 0.000000 0.000000 0.000000 10.000000 
Spine1 0.000000 0.000000 0.000000 0.000000 0.000000 0.000000 10.000000 
L_Leg01 0.000000 0.000000 0.000000 0.000000 0.000000 0.000000 10.000000 
L_Leg02 0.000000 0.000000 0.000000 0.000000 0.000000 0.000000 10.000000 
L_Leg03 0.000000 0.000000 0.000000 0.000000 0.000000 0.000000 10.000000 
L_Foot 0.000000 0.000000 0.000000 0.000000 0.000000 0.000000 10.000000 
L_Toe1_01 0.000000 0.000000 0.000000 0.000000 0.000000 0.000000 10.000000 
L_Toe2_01 0.000000 0.000000 0.000000 0.000000 0.000000 0.000000 10.000000 
L_Toe3_01 0.000000 0.000000 0.000000 0.000000 0.000000 0.000000 10.000000 
planeAlignerLeft 0.000000 0.000000 0.000000 0.000000 0.000000 0.000000 10.000000 
L_Toe1_02 0.000000 0.000000 0.000000 0.000000 0.000000 0.000000 10.000000 
L_Toe1_03 0.000000 0.000000 0.000000 0.000000 0.000000 0.000000 10.000000 
L_Toe2_02 0.000000 0.000000 0.000000 0.000000 0.000000 0.000000 10.000000 
L_Toe2_03 0.000000 0.000000 0.000000 0.000000 0.000000 0.000000 10.000000 
L_Toe3_02 0.000000 0.000000 0.000000 0.000000 0.000000 0.000000 10.000000 
L_Toe3_03 0.000000 0.000000 0.000000 0.000000 0.000000 0.000000 10.000000 
planeLockWeightLeft 0.000000 0.000000 0.000000 0.000000 0.000000 0.000000 10.000000 
R_Leg01 0.000000 0.000000 0.000000 0.000000 0.000000 0.000000 10.000000 
R_Leg02 0.000000 0.000000 0.000000 0.000000 0.000000 0.000000 10.000000 
R_Leg03 0.000000 0.000000 0.000000 0.000000 0.000000 0.000000 10.000000 
R_Foot 0.000000 0.000000 0.000000 0.000000 0.000000 0.000000 10.000000 
planeAlignerRight 0.000000 0.000000 0.000000 0.000000 0.000000 0.000000 10.000000 
R_Toe1_01 0.000000 0.000000 0.000000 0.000000 0.000000 0.000000 10.000000 
R_Toe2_01 0.000000 0.000000 0.000000 0.000000 0.000000 0.000000 10.000000 
R_Toe3_01 0.000000 0.000000 0.000000 0.000000 0.000000 0.000000 10.000000 
planeLockWeightRight 0.000000 0.000000 0.000000 0.000000 0.000000 0.000000 10.000000 
R_Toe1_02 0.000000 0.000000 0.000000 0.000000 0.000000 0.000000 10.000000 
R_Toe1_03 0.000000 0.000000 0.000000 0.000000 0.000000 0.000000 10.000000 
R_Toe2_02 0.000000 0.000000 0.000000 0.000000 0.000000 0.000000 10.000000 
R_Toe2_03 0.000000 0.000000 0.000000 0.000000 0.000000 0.000000 10.000000 
R_Toe3_02 0.000000 0.000000 0.000000 0.000000 0.000000 0.000000 10.000000 
R_Toe3_03 0.000000 0.000000 0.000000 0.000000 0.000000 0.000000 10.000000 
Rear_Leg02 0.000000 0.000000 0.000000 0.000000 0.000000 0.000000 10.000000 
Rear_Leg03 0.000000 0.000000 0.000000 0.000000 0.000000 0.000000 10.000000 
Rear_Leg04 0.000000 0.000000 0.000000 0.000000 0.000000 0.000000 10.000000 
Rear_Foot 0.000000 0.000000 0.000000 0.000000 0.000000 0.000000 10.000000 
planeAlignerCenter 0.000000 0.000000 0.000000 0.000000 0.000000 0.000000 10.000000 
Rear_Toe1_01 0.000000 0.000000 0.000000 0.000000 0.000000 0.000000 10.000000 
Rear_Toe2_01 0.000000 0.000000 0.000000 0.000000 0.000000 0.000000 10.000000 
Rear_Toe3_01 0.000000 0.000000 0.000000 0.000000 0.000000 0.000000 10.000000 
planeLockWeightCenter 0.000000 0.000000 0.000000 0.000000 0.000000 0.000000 10.000000 
Rear_Toe1_02 0.000000 0.000000 0.000000 0.000000 0.000000 0.000000 10.000000 
Rear_Toe1_03 0.000000 0.000000 0.000000 0.000000 0.000000 0.000000 10.000000 
Rear_Toe2_02 0.000000 0.000000 0.000000 0.000000 0.000000 0.000000 10.000000 
Rear_Toe2_03 0.000000 0.000000 0.000000 0.000000 0.000000 0.000000 10.000000 
Rear_Toe3_02 0.000000 0.000000 0.000000 0.000000 0.000000 0.000000 10.000000 
Rear_Toe3_03 0.000000 0.000000 0.000000 0.000000 0.000000 0.000000 10.000000 
Back_Bone 0.000000 0.000000 0.000000 0.000000 0.000000 0.000000 10.000000 
Head 0.000000 0.000000 0.000000 0.000000 0.000000 0.000000 10.000000 
Motor_Bone 0.000000 0.000000 0.000000 0.000000 0.000000 0.000000 10.000000 
Ping_Mechanism 0.000000 0.000000 0.000000 0.000000 0.000000 0.000000 10.000000 
BN_LookIK 0.000000 0.000000 0.000000 0.000000 0.000000 0.000000 10.000000 
bottomMouth 0.000000 0.000000 0.000000 0.000000 0.000000 0.000000 10.000000 
L_Mouth01 0.000000 0.000000 0.000000 0.000000 0.000000 0.000000 10.000000 
L_mouthFront 0.000000 0.000000 0.000000 0.000000 0.000000 0.000000 10.000000 
mouthGun 0.000000 0.000000 0.000000 0.000000 0.000000 0.000000 10.000000 
R_Mouth01 0.000000 0.000000 0.000000 0.000000 0.000000 0.000000 10.000000 
R_mouthFront 0.000000 0.000000 0.000000 0.000000 0.000000 0.000000 10.000000 
TopMouth 0.000000 0.000000 0.000000 0.000000 0.000000 0.000000 10.000000 
weapon_bone 0.000000 0.000000 0.000000 0.000000 0.000000 0.000000 10.000000 
#Beginning of Data. Separated by tabs
#Fr	Tx	Ty	Tz	Rx	Ry	Rz	SF
[Pinger_Root]
11 0.000000 0.000000 0.000000 -0.000075 -0.000000 -0.000020 0.000000
12 0.000000 0.000000 0.000000 -0.000075 -0.000000 -0.000020 0.000000
13 0.000000 0.000000 0.000000 -0.000075 -0.000000 -0.000020 0.000000
[Pelvis]
11 -499.574768 1137.726685 3429.520508 -6.521478 -80.461166 -4.628683 3647.685547
12 -464.749207 1139.931274 3422.510498 -9.974259 -81.741600 -0.102742 3637.170898
13 -420.393921 1142.694946 3416.812012 -16.232088 -83.276054 7.492618 3627.269775
[L_Hip]
11 5.766392 125.831482 872.656799 -169.063950 -58.870003 88.771378 881.701050
12 5.766392 125.831482 872.656799 -167.167709 -60.661388 85.678703 881.701050
13 5.766392 125.831482 872.656799 -164.397202 -62.851353 81.464981 881.701050
[R_Hip]
11 5.765438 125.836372 -872.654907 -21.914124 58.630596 55.464176 881.699829
12 5.765438 125.836372 -872.654907 -23.930611 60.167206 54.389828 881.699829
13 5.765438 125.836372 -872.654907 -26.737383 62.036285 52.762936 881.699829
[Rear_Leg01]
11 -192.298416 -925.602966 -0.001907 -169.279861 19.321949 -111.910400 945.367432
12 -192.298416 -925.602966 -0.001907 -171.004486 17.305231 -112.756744 945.367432
13 -192.298416 -925.602966 -0.001907 -173.159729 14.754648 -113.768799 945.367432
[Spine1]
11 290.604584 5.007505 0.000477 7.532646 -24.748207 17.189280 290.647736
12 290.604584 5.007505 0.000477 6.511613 -22.395330 17.611309 290.647736
13 290.604584 5.007505 0.000477 5.421824 -19.591318 17.900375 290.647736
[L_Leg01]
11 761.932007 -0.002384 -0.069261 27.976027 -21.378733 -61.538467 761.932068
12 761.932007 -0.002384 -0.069261 31.309038 -23.156744 -60.346703 761.932068
13 761.932007 -0.002384 -0.069261 35.495087 -25.676579 -59.098377 761.932068
[L_Leg02]
11 1441.140503 -0.000954 -0.000715 7.513345 3.184361 -133.659668 1441.140503
12 1441.140503 -0.000954 -0.000715 7.540314 3.135479 -135.764969 1441.140503
13 1441.140503 -0.000954 -0.000715 7.569071 3.087604 -137.870880 1441.140503
[L_Leg03]
11 1686.963989 -0.000715 -0.000954 -0.122637 0.077754 143.695999 1686.963989
12 1686.963989 -0.000715 -0.000954 -0.122682 0.077681 143.628342 1686.963989
13 1686.963989 -0.000715 -0.000954 -0.122978 0.077215 143.193115 1686.963989
[L_Foot]
11 3041.570068 -30.715107 11.297464 9.910555 13.741404 57.109764 3041.746094
12 3041.570068 -30.715107 11.297464 9.773410 14.609601 57.213535 3041.746094
13 3041.570068 -30.715107 11.297464 9.493421 15.707774 57.102470 3041.746094
[L_Toe1_01]
11 -188.216690 -224.732346 -21.137953 94.536530 -11.874324 -178.539001 293.899567
12 -188.216690 -224.732346 -21.137953 94.536530 -11.874326 -178.539001 293.899567
13 -188.216690 -224.732346 -21.137953 94.536530 -11.874324 -178.539001 293.899567
[L_Toe2_01]
11 200.746536 -219.926590 148.838394 -89.334587 -33.858410 -48.522381 332.896027
12 200.746536 -219.926590 148.838394 -89.335236 -33.858540 -48.521740 332.896027
13 200.746536 -219.926590 148.838394 -89.335869 -33.858658 -48.521088 332.896027
[L_Toe3_01]
11 188.832520 -219.859131 -191.078659 -97.075203 10.784527 -57.871758 347.140900
12 188.832520 -219.859131 -191.078659 -97.074913 10.784421 -57.871040 347.140900
13 188.832520 -219.859131 -191.078659 -97.074600 10.784311 -57.870300 347.140900
[planeAlignerLeft]
11 0.812531 -811.448792 -0.314951 0.000000 -90.000000 -90.001900 811.449280
12 0.812531 -811.448792 -0.314951 0.000000 -90.000000 -90.001900 811.449280
13 0.812531 -811.448792 -0.314951 0.000000 -90.000000 -90.001900 811.449280
[L_Toe1_02]
11 413.761139 0.000477 0.000000 0.000203 -25.410625 -0.000182 413.761139
12 413.761139 0.000477 0.000000 0.000203 -25.410625 -0.000182 413.761139
13 413.761139 0.000477 0.000000 0.000203 -25.410625 -0.000182 413.761139
[L_Toe1_03]
11 464.317322 0.000358 -0.000089 0.004342 58.635971 0.004342 464.317322
12 464.317322 0.000358 -0.000089 0.004342 58.635971 0.004342 464.317322
13 464.317322 0.000358 -0.000089 0.004342 58.635971 0.004342 464.317322
[L_Toe2_02]
11 342.235809 -0.000477 0.000238 0.001191 -70.156403 0.001191 342.235809
12 342.235809 -0.000477 0.000238 0.001191 -70.156403 0.001191 342.235809
13 342.235809 -0.000477 0.000238 0.001191 -70.156403 0.001191 342.235809
[L_Toe2_03]
11 420.210846 -0.000715 0.000000 0.013353 79.915710 0.013353 420.210846
12 420.210846 -0.000715 0.000000 0.013353 79.915703 0.013353 420.210846
13 420.210846 -0.000715 0.000000 0.013353 79.915703 0.013353 420.210846
[L_Toe3_02]
11 329.270111 0.000954 0.000000 0.001176 -83.130447 0.001176 329.270111
12 329.270111 0.000954 0.000000 0.001176 -83.130447 0.001176 329.270111
13 329.270111 0.000954 0.000000 0.001176 -83.130447 0.001176 329.270111
[L_Toe3_03]
11 439.137451 -0.001907 0.000954 179.990875 65.540901 179.998047 439.137451
12 439.137451 -0.001907 0.000954 179.990875 65.540901 179.998047 439.137451
13 439.137451 -0.001907 0.000954 179.990875 65.540901 179.998047 439.137451
[planeLockWeightLeft]
11 -0.000954 0.000238 -0.000305 -0.011826 -0.004376 0.005620 0.001029
12 -0.000954 0.000238 -0.000305 -0.011826 -0.004376 0.005620 0.001029
13 -0.000954 0.000238 -0.000305 -0.011826 -0.004376 0.005620 0.001029
[R_Leg01]
11 761.455627 -0.001907 -0.000358 70.810265 -12.146099 68.767525 761.455688
12 761.455627 -0.001907 -0.000358 75.192146 -14.129888 68.789215 761.455688
13 761.455627 -0.001907 -0.000358 79.864365 -16.257397 69.181984 761.455688
[R_Leg02]
11 1441.140625 0.000000 -0.000238 -1.274405 -0.644036 -147.922638 1441.140625
12 1441.140625 0.000000 -0.000238 -1.286272 -0.658969 -148.225861 1441.140625
13 1441.140625 0.000000 -0.000238 -1.287865 -0.663263 -148.184647 1441.140625
[R_Leg03]
11 1686.963989 0.000954 0.001431 0.118869 -0.075093 143.145218 1686.963989
12 1686.963989 0.000954 0.001431 0.119789 -0.075807 143.329514 1686.963989
13 1686.963989 0.000954 0.001431 0.120707 -0.076524 143.513794 1686.963989
[R_Foot]
11 3041.560059 -30.531288 -11.204481 7.099625 -42.796318 47.080322 3041.734131
12 3041.560059 -30.531288 -11.204481 3.989908 -39.752209 49.105915 3041.734131
13 3041.560059 -30.531288 -11.204481 0.797573 -36.610794 50.951916 3041.734131
[planeAlignerRight]
11 -0.635147 -812.270569 -0.364304 0.000000 -89.960434 -90.005180 812.270874
12 -0.635147 -812.270569 -0.364304 0.000000 -89.960434 -90.005180 812.270874
13 -0.635147 -812.270569 -0.364304 0.000000 -89.960434 -90.005180 812.270874
[R_Toe1_01]
11 -188.383347 -224.864899 21.052242 58.204189 26.473026 -166.997208 294.101532
12 -188.383347 -224.864899 21.052242 58.204208 26.473070 -166.997177 294.101532
13 -188.383347 -224.864899 21.052242 58.204231 26.473116 -166.997147 294.101532
[R_Toe2_01]
11 200.637817 -220.002121 -148.787384 -55.994583 39.712742 -29.524958 332.857574
12 200.637817 -220.002121 -148.787384 -55.994583 39.712746 -29.524961 332.857574
13 200.637817 -220.002121 -148.787384 -55.994591 39.712746 -29.524965 332.857574
[R_Toe3_01]
11 188.606735 -220.092957 191.126343 -53.843849 11.158475 -73.289551 347.192566
12 188.606735 -220.092957 191.126343 -53.843838 11.158504 -73.289490 347.192566
13 188.606735 -220.092957 191.126343 -53.843834 11.158534 -73.289436 347.192566
[planeLockWeightRight]
11 -0.000477 0.000000 0.000000 -0.011823 -0.004379 -0.000027 0.000477
12 -0.000477 0.000000 0.000000 -0.011823 -0.004379 -0.000027 0.000477
13 -0.000477 0.000000 0.000000 -0.011823 -0.004379 -0.000027 0.000477
[R_Toe1_02]
11 413.762085 0.000477 -0.000119 0.000006 -25.434675 -0.000005 413.762085
12 413.762085 0.000477 -0.000119 0.000006 -25.434675 -0.000005 413.762085
13 413.762085 0.000477 -0.000119 0.000006 -25.434675 -0.000005 413.762085
[R_Toe1_03]
11 464.317810 0.000000 0.001088 0.003184 46.742443 0.003184 464.317810
12 464.317810 0.000000 0.001088 0.003184 46.742378 0.003184 464.317810
13 464.317810 0.000000 0.001088 0.003184 46.742336 0.003184 464.317810
[R_Toe2_02]
11 342.234741 -0.000954 0.000238 0.001235 -53.660015 0.001235 342.234741
12 342.234741 -0.000954 0.000238 0.001235 -53.660015 0.001235 342.234741
13 342.234741 -0.000954 0.000238 0.001235 -53.660015 0.001235 342.234741
[R_Toe2_03]
11 420.210846 0.000715 -0.000268 -0.003602 51.671585 0.000100 420.210846
12 420.210846 0.000715 -0.000268 -0.003602 51.671577 0.000100 420.210846
13 420.210846 0.000715 -0.000268 -0.003602 51.671577 0.000100 420.210846
[R_Toe3_02]
11 329.270355 -0.000477 -0.000954 -0.002373 -66.445045 -0.002373 329.270355
12 329.270355 -0.000477 -0.000954 -0.002373 -66.445053 -0.002373 329.270355
13 329.270355 -0.000477 -0.000954 -0.002373 -66.445045 -0.002373 329.270355
[R_Toe3_03]
11 439.137939 0.000238 0.001431 0.005869 66.928558 0.005869 439.137939
12 439.137939 0.000238 0.001431 0.005869 66.928558 0.005869 439.137939
13 439.137939 0.000238 0.001431 0.005869 66.928558 0.005869 439.137939
[Rear_Leg02]
11 1162.777710 -0.029802 0.005960 3.133632 -5.332031 -99.984566 1162.777710
12 1162.777710 -0.029802 0.005960 2.505270 -4.186235 -100.441597 1162.777710
13 1162.777710 -0.029802 0.005960 1.686703 -2.776113 -100.844193 1162.777710
[Rear_Leg03]
11 607.192505 -0.013351 -0.073195 0.010354 -0.005381 71.283218 607.192505
12 607.192505 -0.013351 -0.073195 0.010347 -0.005395 71.429199 607.192505
13 607.192505 -0.013351 -0.073195 0.010340 -0.005408 71.575195 607.192505
[Rear_Leg04]
11 995.874512 -0.020504 -0.011921 -0.041164 -0.016573 73.502457 995.874573
12 995.874512 -0.020504 -0.011921 -0.041217 -0.016438 73.876060 995.874573
13 995.874512 -0.020504 -0.011921 -0.041270 -0.016303 74.249664 995.874573
[Rear_Foot]
11 3096.176270 -0.067472 -0.041425 -52.917843 83.534317 137.215714 3096.176270
12 3096.176270 -0.067472 -0.041425 -47.999630 84.514481 142.034576 3096.176270
13 3096.176270 -0.067472 -0.041425 -38.390858 85.755829 151.518356 3096.176270
[planeAlignerCenter]
11 0.350077 0.966311 -838.790894 0.000009 0.000003 -179.999985 838.791565
12 0.350077 0.966311 -838.790894 0.000009 0.000003 -179.999985 838.791565
13 0.350077 0.966311 -838.790894 0.000009 0.000003 -179.999985 838.791565
[Rear_Toe1_01]
11 0.653352 83.966492 -371.173737 5.378523 30.462614 103.601936 380.553192
12 0.653352 83.966492 -371.173737 5.378379 30.462719 103.601372 380.553192
13 0.653352 83.966492 -371.173737 5.378231 30.462818 103.600792 380.553192
[Rear_Toe2_01]
11 178.200760 -294.826019 -362.060547 -8.740838 22.951553 -73.392647 499.765686
12 178.200760 -294.826019 -362.060547 -8.740813 22.951605 -73.392159 499.765686
13 178.200760 -294.826019 -362.060547 -8.740785 22.951656 -73.391678 499.765686
[Rear_Toe3_01]
11 -153.359680 -308.780914 -362.060852 3.773121 19.496605 -119.571480 499.952881
12 -153.359680 -308.780914 -362.060852 3.773175 19.496576 -119.571396 499.952881
13 -153.359680 -308.780914 -362.060852 3.773228 19.496546 -119.571327 499.952881
[planeLockWeightCenter]
11 -0.000062 0.000238 0.000000 -0.011814 -0.004373 -0.000015 0.000246
12 -0.000062 0.000238 0.000000 -0.011814 -0.004373 -0.000015 0.000246
13 -0.000062 0.000238 0.000000 -0.011814 -0.004373 -0.000015 0.000246
[Rear_Toe1_02]
11 379.707825 0.194073 0.000477 -0.000337 -32.973057 0.006988 379.707855
12 379.707825 0.194073 0.000477 -0.000337 -32.973953 0.006988 379.707855
13 379.707825 0.194073 0.000477 -0.000337 -32.974861 0.006988 379.707855
[Rear_Toe1_03]
11 500.129700 0.165701 0.000119 -0.004070 60.569805 -0.000455 500.129761
12 500.129700 0.165701 0.000119 -0.004070 60.569962 -0.000455 500.129761
13 500.129700 0.165701 0.000119 -0.004070 60.570152 -0.000455 500.129761
[Rear_Toe2_02]
11 340.494507 0.000238 -0.000954 0.001179 -79.094398 0.001179 340.494507
12 340.494507 0.000238 -0.000954 0.001179 -79.094398 0.001179 340.494507
13 340.494507 0.000238 -0.000954 0.001179 -79.094398 0.001179 340.494507
[Rear_Toe2_03]
11 433.103577 0.000000 0.000238 0.031673 85.752777 0.031673 433.103546
12 433.103577 0.000000 0.000238 0.031673 85.752869 0.031673 433.103546
13 433.103577 0.000000 0.000238 0.031673 85.752869 0.031673 433.103546
[Rear_Toe3_02]
11 340.494141 -0.000358 -0.000477 -0.002471 -50.096046 -0.002471 340.494171
12 340.494141 -0.000358 -0.000477 -0.002471 -50.096046 -0.002471 340.494171
13 340.494141 -0.000358 -0.000477 -0.002471 -50.096046 -0.002471 340.494171
[Rear_Toe3_03]
11 433.103577 0.001431 -0.000238 0.000412 44.442017 -0.003381 433.103546
12 433.103577 0.001431 -0.000238 0.000412 44.442062 -0.003381 433.103546
13 433.103577 0.001431 -0.000238 0.000412 44.442101 -0.003381 433.103546
[Back_Bone]
11 1312.175781 -701.934692 0.000954 4.310192 0.386563 -87.093697 1488.125488
12 1312.175781 -701.934692 0.000954 3.172869 0.183511 -86.305397 1488.125488
13 1312.175781 -701.934692 0.000954 2.213539 0.047072 -85.794388 1488.125488
[Head]
11 1406.159424 809.709290 0.001431 3.773104 13.612117 41.141975 1622.625488
12 1406.159424 809.709290 0.001431 3.279384 13.331771 41.300900 1622.625488
13 1406.159424 809.709290 0.001431 2.785462 13.052784 41.462105 1622.625488
[Motor_Bone]
11 1158.364380 -417.834747 0.000477 -0.000105 0.000046 -105.985291 1231.419434
12 1158.364380 -417.834747 0.000477 -0.000105 0.000046 -105.985291 1231.419434
13 1158.364380 -417.834747 0.000477 -0.000105 0.000046 -105.985291 1231.419434
[Ping_Mechanism]
11 1213.665527 -414.345673 45.483170 0.000103 -0.000053 82.120995 1283.251831
12 1217.207764 -419.837311 40.514553 0.000103 -0.000053 82.120995 1288.215576
13 1221.068604 -425.553253 32.658211 0.000103 -0.000053 82.120995 1293.510986
[BN_LookIK]
11 193.241119 1380.371704 -0.002861 0.000000 89.965736 -31.038179 1393.832153
12 193.241119 1380.371704 -0.002861 0.000000 89.965736 -31.038179 1393.832153
13 193.241119 1380.371704 -0.002861 0.000000 89.965736 -31.038179 1393.832153
[bottomMouth]
11 -435.092926 615.759399 -0.000954 -0.000022 0.000016 73.527184 753.966492
12 -435.092926 615.759399 -0.000954 -0.000022 0.000016 73.527184 753.966492
13 -435.092926 615.759399 -0.000954 -0.000022 0.000016 73.527184 753.966492
[L_Mouth01]
11 554.440979 7.658243 838.222046 150.204178 23.759130 109.605339 1005.027161
12 554.440979 7.658243 838.222046 150.204178 23.759130 109.605339 1005.027161
13 554.440979 7.658243 838.222046 150.204178 23.759130 109.605339 1005.027161
[L_mouthFront]
11 551.629089 934.514771 339.150421 0.000081 2.804060 79.119301 1136.941284
12 551.629089 934.514771 339.150421 0.000081 2.804060 79.119301 1136.941284
13 551.629089 934.514771 339.150421 0.000081 2.804060 79.119301 1136.941284
[mouthGun]
11 55.332661 1627.420898 0.000000 0.000023 0.000009 -11.038128 1628.361328
12 55.332661 1627.420898 0.000000 0.000023 0.000009 -11.038128 1628.361328
13 55.332661 1627.420898 0.000000 0.000023 0.000009 -11.038128 1628.361328
[R_Mouth01]
11 554.442383 7.659197 -838.223938 29.795891 -23.759109 109.605331 1005.029541
12 554.442383 7.659197 -838.223938 29.795891 -23.759109 109.605331 1005.029541
13 554.442383 7.659197 -838.223938 29.795891 -23.759109 109.605331 1005.029541
[R_mouthFront]
11 551.629089 934.514282 -339.151367 0.000029 -2.803930 79.119133 1136.941162
12 551.629089 934.514282 -339.151367 0.000029 -2.803930 79.119133 1136.941162
13 551.629089 934.514282 -339.151367 0.000029 -2.803930 79.119133 1136.941162
[TopMouth]
11 461.269867 -56.106091 -0.008583 -0.000059 -0.000268 92.025169 464.669525
12 461.269867 -56.106091 -0.008583 -0.000059 -0.000268 92.025169 464.669525
13 461.269867 -56.106091 -0.008583 -0.000059 -0.000268 92.025169 464.669525
[weapon_bone]
11 -987.239868 1448.372803 0.001431 0.000000 89.965736 -31.038221 1752.833740
12 -987.239868 1448.372803 0.001431 0.000000 89.965736 -31.038221 1752.833740
13 -987.239868 1448.372803 0.001431 0.000000 89.965736 -31.038221 1752.833740
